<svg width="681" height="181" viewBox="0 0 681 181" fill="none" xmlns="http://www.w3.org/2000/svg">
<path d="M392.69 179.552V112.349H399.218V179.552H392.69Z" fill="#52453D"/>
<path d="M361.188 179.552V112.349H367.717V179.552H361.188Z" fill="#52453D"/>
<path d="M299.592 112.349H312.456C319.241 112.349 324.489 113.789 328.201 116.669C331.977 119.485 333.865 123.454 333.865 128.574C333.865 132.542 332.681 135.838 330.313 138.462C328.009 141.086 324.649 142.847 320.233 143.743V144.319C324.457 145.151 327.913 147.135 330.601 150.271C333.289 153.407 335.305 157.279 336.649 161.887C337.865 166.112 339.049 169.408 340.202 171.776C341.418 174.08 342.73 175.744 344.138 176.768C345.61 177.792 347.338 178.528 349.322 178.976V179.552H345.386C342.57 179.552 340.233 179.04 338.377 178.016C336.585 176.992 335.049 175.264 333.769 172.832C332.489 170.4 331.273 167.04 330.121 162.751C328.265 156.159 325.801 151.487 322.729 148.735C319.657 145.983 315.912 144.607 311.496 144.607H310.92V142.879H311.496C321.801 142.879 326.953 138.142 326.953 128.67C326.953 119.325 322.121 114.653 312.456 114.653H306.12V179.552H299.592V112.349Z" fill="#52453D"/>
<path d="M249.902 179.552V112.349H279.183V117.053L262.383 114.845C259.438 114.461 257.454 114.269 256.43 114.269V143.551C257.262 143.551 259.246 143.455 262.383 143.263L278.127 142.302V146.719L262.383 145.759C259.246 145.567 257.262 145.471 256.43 145.471V177.632C257.582 177.632 259.598 177.44 262.479 177.056L279.471 174.848V179.552H249.902Z" fill="#52453D"/>
<path d="M230.72 171.296L230.144 177.152C228.352 177.92 226.176 178.592 223.616 179.168C221.056 179.744 218.464 180.16 215.84 180.416C213.215 180.736 210.879 180.896 208.831 180.896C203.647 180.896 198.847 180.032 194.431 178.304C190.014 176.512 186.142 174.048 182.814 170.912C179.55 167.776 176.99 164.095 175.134 159.871C173.278 155.583 172.35 150.943 172.35 145.951C172.35 140.958 173.278 136.35 175.134 132.126C176.99 127.838 179.55 124.126 182.814 120.989C186.142 117.853 190.014 115.421 194.431 113.693C198.847 111.901 203.647 111.005 208.831 111.005C210.943 111.005 213.311 111.165 215.936 111.485C218.56 111.805 221.12 112.253 223.616 112.829C226.112 113.341 228.224 113.949 229.952 114.653L229.472 120.029H228.896C226.528 117.853 223.552 116.189 219.968 115.037C216.384 113.885 212.671 113.309 208.831 113.309C203.071 113.309 197.983 114.685 193.567 117.437C189.214 120.125 185.79 123.934 183.294 128.862C180.862 133.726 179.646 139.422 179.646 145.951C179.646 152.543 180.862 158.271 183.294 163.135C185.79 168 189.214 171.808 193.567 174.56C197.919 177.248 203.007 178.592 208.831 178.592C213.183 178.592 217.216 177.888 220.928 176.48C224.704 175.072 227.776 173.344 230.144 171.296H230.72Z" fill="#52453D"/>
<path d="M104.911 179.552L130.736 112.349H136.688L162.514 179.552H155.505L143.601 148.063H121.808L111.919 179.552H104.911ZM131.408 117.341L122.48 145.759H142.737L131.984 117.341H131.408Z" fill="#52453D"/>
<path d="M73.1752 179.552V112.349H101.4V117.053L85.4637 114.845C82.5836 114.461 80.6635 114.269 79.7035 114.269V144.319C80.7275 144.319 82.7116 144.223 85.6557 144.031L100.344 143.071V147.487L85.6557 146.527C82.7116 146.335 80.7275 146.239 79.7035 146.239V179.552H73.1752Z" fill="#52453D"/>
<path d="M0 179.552L25.8252 112.349H31.7774L57.6026 179.552H50.5943L38.6898 148.063H16.8968L7.00832 179.552H0ZM26.4972 117.341L17.5688 145.759H37.8257L27.0732 117.341H26.4972Z" fill="#52453D"/>
<path d="M622.716 68.547L648.541 1.34399H654.493L680.318 68.547H673.31L661.406 37.0576H639.613L629.724 68.547H622.716ZM649.213 6.33622L640.285 34.7535H660.542L649.789 6.33622H649.213Z" fill="#52453D"/>
<path d="M568.198 1.34399H581.062C587.847 1.34399 593.095 2.78406 596.807 5.66419C600.583 8.48032 602.471 12.4485 602.471 17.5687C602.471 21.5369 601.287 24.8331 598.919 27.4572C596.615 30.0813 593.255 31.8414 588.839 32.7374V33.3134C593.063 34.1455 596.519 36.1296 599.207 39.2657C601.895 42.4019 603.911 46.274 605.255 50.8822C606.471 55.1064 607.655 58.4026 608.807 60.7707C610.024 63.0748 611.336 64.7389 612.744 65.7629C614.216 66.787 615.944 67.523 617.928 67.971V68.547H613.992C611.176 68.547 608.839 68.035 606.983 67.011C605.191 65.9869 603.655 64.2588 602.375 61.8267C601.095 59.3946 599.879 56.0345 598.727 51.7463C596.871 45.154 594.407 40.4818 591.335 37.7296C588.263 34.9775 584.518 33.6015 580.102 33.6015H579.526V31.8734H580.102C590.407 31.8734 595.559 27.1372 595.559 17.6647C595.559 8.32031 590.727 3.6481 581.062 3.6481H574.726V68.547H568.198V1.34399Z" fill="#52453D"/>
<path d="M490.639 1.34399H497.168V41.8578C497.168 49.6022 499.056 55.6505 502.832 60.0027C506.672 64.2909 512.048 66.4349 518.961 66.4349C523.313 66.4349 527.089 65.6029 530.289 63.9388C533.553 62.2108 536.049 59.8427 537.778 56.8345C539.57 53.8264 540.402 50.3702 540.274 46.466L538.642 1.34399H545.17L543.538 46.466C543.282 54.1464 540.978 59.9707 536.625 63.9388C532.337 67.907 526.193 69.8911 518.193 69.8911C509.552 69.8911 502.8 67.395 497.936 62.4028C493.072 57.3465 490.639 50.4342 490.639 41.6658V1.34399Z" fill="#52453D"/>
<path d="M444.706 68.547V3.26409C443.746 3.26409 441.762 3.45609 438.754 3.84011L419.937 6.24022V1.34399H476.004V6.24022L457.187 3.84011C454.179 3.45609 452.194 3.26409 451.234 3.26409V68.547H444.706Z" fill="#52453D"/>
<path d="M410.166 60.2907L409.59 66.147C407.798 66.915 405.622 67.5871 403.062 68.1631C400.501 68.7391 397.909 69.1551 395.285 69.4112C392.661 69.7312 390.325 69.8912 388.277 69.8912C383.093 69.8912 378.292 69.0271 373.876 67.2991C369.46 65.507 365.588 63.0429 362.26 59.9067C358.996 56.7706 356.436 53.0904 354.579 48.8662C352.723 44.578 351.795 39.9378 351.795 34.9456C351.795 29.9534 352.723 25.3452 354.579 21.121C356.436 16.8328 358.996 13.1206 362.26 9.98446C365.588 6.84831 369.46 4.4162 373.876 2.68812C378.292 0.896041 383.093 0 388.277 0C390.389 0 392.757 0.160007 395.381 0.480021C398.005 0.800036 400.565 1.24806 403.062 1.82408C405.558 2.33611 407.67 2.94413 409.398 3.64816L408.918 9.02441H408.342C405.974 6.84831 402.998 5.18424 399.413 4.03218C395.829 2.88013 392.117 2.3041 388.277 2.3041C382.517 2.3041 377.428 3.68017 373.012 6.43229C368.66 9.12042 365.236 12.9286 362.74 17.8568C360.308 22.721 359.092 28.4173 359.092 34.9456C359.092 41.5379 360.308 47.2661 362.74 52.1304C365.236 56.9946 368.66 60.8028 373.012 63.5549C377.364 66.243 382.453 67.5871 388.277 67.5871C392.629 67.5871 396.661 66.883 400.373 65.475C404.15 64.0669 407.222 62.3388 409.59 60.2907H410.166Z" fill="#52453D"/>
<path d="M306.905 68.547V1.34399H336.186V6.04821L319.385 3.84011C316.441 3.45609 314.457 3.26409 313.433 3.26409V32.5454C314.265 32.5454 316.249 32.4494 319.385 32.2574L335.13 31.2974V35.7136L319.385 34.7535C316.249 34.5615 314.265 34.4655 313.433 34.4655V66.627C314.585 66.627 316.601 66.4349 319.481 66.0509L336.474 63.8428V68.547H306.905Z" fill="#52453D"/>
<path d="M260.01 68.547V3.26409C259.05 3.26409 257.066 3.45609 254.058 3.84011L235.241 6.24022V1.34399H291.308V6.24022L272.491 3.84011C269.483 3.45609 267.499 3.26409 266.539 3.26409V68.547H260.01Z" fill="#52453D"/>
<path d="M213.15 68.547V1.34399H219.679V68.547H213.15Z" fill="#52453D"/>
<path d="M134.772 68.547V1.34399H141.3V32.4494H181.622V1.34399H188.15V68.547H181.622V34.7535H141.3V68.547H134.772Z" fill="#52453D"/>
<path d="M73.1752 1.34399H86.0398C92.8241 1.34399 98.0723 2.78406 101.784 5.66419C105.561 8.48032 107.449 12.4485 107.449 17.5687C107.449 21.5369 106.265 24.8331 103.897 27.4572C101.592 30.0813 98.2323 31.8414 93.8161 32.7374V33.3134C98.0403 34.1455 101.496 36.1296 104.185 39.2657C106.873 42.4019 108.889 46.274 110.233 50.8822C111.449 55.1064 112.633 58.4026 113.785 60.7707C115.001 63.0748 116.313 64.7389 117.721 65.7629C119.193 66.787 120.921 67.523 122.905 67.971V68.547H118.969C116.153 68.547 113.817 68.035 111.961 67.011C110.169 65.9869 108.633 64.2588 107.353 61.8267C106.073 59.3946 104.857 56.0345 103.705 51.7463C101.848 45.154 99.3844 40.4818 96.3122 37.7296C93.2401 34.9775 89.4959 33.6015 85.0797 33.6015H84.5037V31.8734H85.0797C95.3842 31.8734 100.536 27.1372 100.536 17.6647C100.536 8.32031 95.7042 3.6481 86.0398 3.6481H79.7035V68.547H73.1752V1.34399Z" fill="#52453D"/>
<path d="M0 68.547L25.8252 1.34399H31.7774L57.6026 68.547H50.5943L38.6898 37.0576H16.8968L7.00832 68.547H0ZM26.4972 6.33622L17.5688 34.7535H37.8257L27.0732 6.33622H26.4972Z" fill="#52453D"/>
</svg>
